<?xml version="1.0" standalone="no"?>
<!DOCTYPE svg PUBLIC "-//W3C//DTD SVG 20010904//EN"
 "http://www.w3.org/TR/2001/REC-SVG-20010904/DTD/svg10.dtd">
<svg version="1.0" xmlns="http://www.w3.org/2000/svg"
 width="398.000000pt" height="398.000000pt" viewBox="0 0 398.000000 398.000000"
 preserveAspectRatio="xMidYMid meet">
<metadata>
Created by potrace 1.11, written by Peter Selinger 2001-2013
</metadata>
<g transform="translate(0.000000,398.000000) scale(0.100000,-0.100000)"
fill="#000000" stroke="none">
<path d="M9 2076 c0 -1035 -1 -1918 -2 -1963 0 -46 2 -86 6 -89 7 -7 3901 -12
3925 -6 9 3 12 406 12 1972 l0 1967 -1970 0 -1970 0 -1 -1881z m3741 -87 c0
-1408 -3 -1769 -12 -1770 -7 0 -102 -1 -211 -2 l-198 -2 -62 80 c-332 431
-977 757 -1767 894 -140 24 -167 28 -250 36 -36 4 -70 8 -77 10 -54 17 -711
27 -885 14 l-78 -7 0 1253 c0 688 2 1254 5 1257 3 3 800 5 1770 5 l1765 0 0
-1768z"/>
<path d="M2730 3218 c-275 -50 -421 -359 -286 -604 34 -61 50 -80 106 -125 71
-56 132 -79 226 -86 93 -7 150 5 226 46 83 43 152 121 189 212 30 71 33 235 6
288 -9 19 -17 39 -17 45 0 21 -90 125 -135 156 -90 62 -209 88 -315 68z"/>
</g>
</svg>
