<?xml version="1.0" standalone="no"?>
<!DOCTYPE svg PUBLIC "-//W3C//DTD SVG 20010904//EN"
 "http://www.w3.org/TR/2001/REC-SVG-20010904/DTD/svg10.dtd">
<svg version="1.0" xmlns="http://www.w3.org/2000/svg"
 width="414.000000pt" height="414.000000pt" viewBox="0 0 414.000000 414.000000"
 preserveAspectRatio="xMidYMid meet">
<metadata>
Created by potrace 1.11, written by Peter Selinger 2001-2013
</metadata>
<g transform="translate(0.000000,414.000000) scale(0.100000,-0.100000)"
fill="#000000" stroke="none">
<path d="M1995 4132 c-102 -5 -274 -34 -400 -67 -663 -173 -1206 -667 -1449
-1318 -39 -103 -90 -292 -100 -367 -3 -25 -8 -56 -11 -70 -18 -91 -24 -352
-11 -485 29 -297 125 -596 268 -834 21 -34 38 -65 38 -67 0 -3 5 -10 10 -17 6
-7 31 -41 56 -77 98 -137 231 -277 363 -383 86 -68 216 -157 230 -157 5 0 11
-4 13 -8 7 -18 258 -132 373 -170 129 -43 274 -77 370 -87 33 -4 68 -9 78 -12
23 -6 325 -5 387 2 85 9 120 15 300 51 51 10 195 57 279 91 289 116 534 282
746 505 255 268 430 585 520 938 29 114 37 160 53 300 9 85 9 356 -1 445 -34
320 -141 619 -318 890 -39 61 -74 112 -78 115 -3 3 -32 37 -63 75 -190 234
-470 438 -776 564 -89 36 -342 113 -360 109 -4 -1 -23 2 -42 5 -136 26 -320
37 -475 29z m575 -906 c309 -22 628 -164 862 -384 499 -470 606 -1201 262
-1796 -135 -234 -358 -443 -604 -566 -102 -51 -288 -113 -390 -130 -41 -7 -84
-14 -95 -16 -29 -6 -296 -6 -322 0 -11 2 -43 8 -70 11 -133 19 -317 80 -447
149 -402 214 -677 594 -756 1045 -25 148 -21 386 9 530 91 431 359 791 743
994 136 72 332 137 463 153 163 20 193 21 345 10z"/>
</g>
</svg>
