<?xml version="1.0" standalone="no"?>
<!DOCTYPE svg PUBLIC "-//W3C//DTD SVG 20010904//EN"
 "http://www.w3.org/TR/2001/REC-SVG-20010904/DTD/svg10.dtd">
<svg version="1.0" xmlns="http://www.w3.org/2000/svg"
 width="400.000000pt" height="400.000000pt" viewBox="0 0 400.000000 400.000000"
 preserveAspectRatio="xMidYMid meet">
<metadata>
Created by potrace 1.11, written by Peter Selinger 2001-2013
</metadata>
<g transform="translate(0.000000,400.000000) scale(0.100000,-0.100000)"
fill="#000000" stroke="none">
<path d="M15 3960 c-6 -10 -7 -3921 -1 -3928 4 -3 3739 -6 3904 -3 l32 1 0
1969 0 1969 -1965 0 c-1081 0 -1967 -4 -1970 -8z m3735 -1961 l0 -1769 -32 0
c-46 -1 -271 -1 -339 0 l-55 0 -52 70 c-294 394 -882 712 -1596 864 -157 34
-203 42 -276 52 -19 3 -44 6 -56 8 -11 2 -52 7 -90 11 -38 4 -77 9 -86 11
-100 18 -712 27 -880 12 l-78 -6 0 1252 c0 689 3 1255 6 1258 3 3 799 6 1770
6 l1764 0 0 -1769z"/>
<path d="M2715 3225 c-140 -33 -252 -133 -302 -269 -20 -55 -24 -176 -8 -236
13 -50 54 -130 83 -165 27 -32 104 -90 142 -108 152 -69 348 -37 460 75 93 93
131 189 127 321 -3 64 -9 95 -30 141 -50 109 -132 187 -238 227 -60 23 -168
30 -234 14z"/>
</g>
</svg>
