<svg id="Layer_1" data-name="Layer 1" xmlns="http://www.w3.org/2000/svg" viewBox="0 0 2064.51 412.6"><defs><style>.cls-1{fill:#66a4cf;}</style></defs><title>logo</title><path class="cls-1" d="M627.91,1896.33A211.3,211.3,0,0,1,523.61,1968a207.41,207.41,0,0,1-70.38,9c-3.1-.21-6.24-.36-9.39-.64s-6.32-.6-9.48-1.06-6.35-.94-9.51-1.57-6.36-1.28-9.52-2.08A198.73,198.73,0,0,1,341.79,1937c-2.85-2.14-5.57-4.45-8.37-6.73s-5.39-4.78-8.1-7.23-5.19-5.1-7.79-7.71c-1.32-1.29-2.48-2.7-3.71-4.07l-3.64-4.17a201.21,201.21,0,0,1-41.28-80.35,206.88,206.88,0,0,1-1.65-94.18,213.52,213.52,0,0,1,115.9-147.3,207.09,207.09,0,0,1,91.8-20.57,201.34,201.34,0,0,1,87.66,21c3.28,1.71,6.56,3.32,9.72,5.2s6.29,3.71,9.32,5.71,6,4,8.93,6.12,5.76,4.26,8.51,6.51a199.2,199.2,0,0,1,51.13,63c1.53,2.87,2.89,5.84,4.29,8.73s2.55,5.92,3.79,8.84,2.22,6,3.29,8.93,1.94,6,2.88,8.93a207.14,207.14,0,0,1,8.08,70.37,210.46,210.46,0,0,1-44.64,118.33Zm-8.26-6.48a148.15,148.15,0,0,0,25.94-51.59,145.62,145.62,0,0,0-103.52-179,144,144,0,0,0-27.93-4.42,151,151,0,0,0-28.18,1.05,145.36,145.36,0,0,0-125.33,159.74,151.86,151.86,0,0,0,5.69,27.62,144.21,144.21,0,0,0,47,69.61,145.33,145.33,0,0,0,162.35,14.46A148.15,148.15,0,0,0,619.65,1889.85Z" transform="translate(-262.62 -1564.63)"/><path class="cls-1" d="M905.2,1758.65q-19-9.88-37.24-9.88-9.5,0-15.39,3.8t-5.89,10.26a13.41,13.41,0,0,0,.95,5.51,9.75,9.75,0,0,0,4.18,4,35.93,35.93,0,0,0,9.5,3.42q6.27,1.52,16.53,3.8,28.5,5.7,42.56,20.33t14.06,37.43a67.87,67.87,0,0,1-6.84,30.78,65.47,65.47,0,0,1-19,23,90.28,90.28,0,0,1-29.26,14.44,130.52,130.52,0,0,1-37.62,5.13q-39.53,0-77.9-22.42l25.08-48.64q28.87,19.76,54.72,19.76,9.49,0,15.58-4.18t6.08-10.64a17.77,17.77,0,0,0-.95-6.27,10.27,10.27,0,0,0-4-4.56,32,32,0,0,0-8.93-3.8q-5.9-1.71-15.39-3.61-31.92-6.46-44.65-19.19t-12.73-35.15a69.17,69.17,0,0,1,6.08-29.45,60.94,60.94,0,0,1,17.48-22.23,81.93,81.93,0,0,1,27.55-14.06,122.55,122.55,0,0,1,35.91-4.94,163,163,0,0,1,62.7,12.54Z" transform="translate(-262.62 -1564.63)"/><path class="cls-1" d="M1119.9,1708.49h69.16v194.94H1119.9v-21.66q-22,27.74-59.66,27.74a96.88,96.88,0,0,1-39.14-7.79,94.25,94.25,0,0,1-31.16-21.85,100.73,100.73,0,0,1-20.71-33.06,113,113,0,0,1-7.41-41.42,109.82,109.82,0,0,1,7.22-39.71,102,102,0,0,1,20.14-32.87,95,95,0,0,1,30.78-22.23,93.9,93.9,0,0,1,39.52-8.17q36.48,0,60.42,25.46Zm-86.64,96.9a45.47,45.47,0,0,0,12.73,31.92,41.71,41.71,0,0,0,14.06,9.5,45.28,45.28,0,0,0,17.67,3.42,44.33,44.33,0,0,0,17.29-3.42,41.82,41.82,0,0,0,14.06-9.5,49.18,49.18,0,0,0,9.5-14.06,41,41,0,0,0,3.61-17.1,42.35,42.35,0,0,0-3.61-17.29,48.53,48.53,0,0,0-9.5-14.25,41.92,41.92,0,0,0-14.06-9.5,44.35,44.35,0,0,0-17.29-3.42,45.3,45.3,0,0,0-17.67,3.42,41.8,41.8,0,0,0-14.06,9.5,46.83,46.83,0,0,0-9.31,13.87A41.61,41.61,0,0,0,1033.26,1805.39Z" transform="translate(-262.62 -1564.63)"/><path class="cls-1" d="M1312.55,1765.87v137.56h-68.78V1765.87H1221v-57.38h22.8V1650h68.78v58.52h39.14v57.38Z" transform="translate(-262.62 -1564.63)"/><path class="cls-1" d="M1443.27,1817.55q0,44.46,41.8,44.46,22.42,0,33.82-18.24h66.5q-20.15,66.89-100.7,66.88-24.71,0-45.22-7.41a100.89,100.89,0,0,1-35.15-21.09,93.93,93.93,0,0,1-22.61-32.68q-8-19-8-42.56,0-24.31,7.6-43.89a92.29,92.29,0,0,1,21.66-33.25,95.94,95.94,0,0,1,34-21.09q19.95-7.41,45-7.41,24.7,0,44.46,7.41a90.08,90.08,0,0,1,33.44,21.47,93.37,93.37,0,0,1,20.9,34.39q7.21,20.33,7.22,45.79v7.22Zm80.56-39.9a41.42,41.42,0,0,0-14.06-23.18q-10.64-8.74-25.84-8.74-16,0-26,8.36t-12.73,23.56Z" transform="translate(-262.62 -1564.63)"/><path class="cls-1" d="M1696,1588v315.4h-68.78V1588Z" transform="translate(-262.62 -1564.63)"/><path class="cls-1" d="M1811.86,1588v315.4h-68.78V1588Z" transform="translate(-262.62 -1564.63)"/><path class="cls-1" d="M1854.42,1633.63a37.36,37.36,0,0,1,3-15,39.41,39.41,0,0,1,20.71-20.71,38.57,38.57,0,0,1,30,0,39.41,39.41,0,0,1,20.71,20.71,38.59,38.59,0,0,1,0,30,39.42,39.42,0,0,1-20.71,20.71,38.57,38.57,0,0,1-30,0,39.42,39.42,0,0,1-20.71-20.71A37.34,37.34,0,0,1,1854.42,1633.63Zm73.34,74.86v194.94H1859V1708.49Z" transform="translate(-262.62 -1564.63)"/><path class="cls-1" d="M2051.63,1765.87v137.56h-68.78V1765.87h-22.8v-57.38h22.8V1650h68.78v58.52h39.14v57.38Z" transform="translate(-262.62 -1564.63)"/><path class="cls-1" d="M2182.34,1817.55q0,44.46,41.8,44.46,22.42,0,33.82-18.24h66.5q-20.15,66.89-100.7,66.88-24.71,0-45.22-7.41a100.89,100.89,0,0,1-35.15-21.09,93.93,93.93,0,0,1-22.61-32.68q-8-19-8-42.56,0-24.31,7.6-43.89a92.29,92.29,0,0,1,21.66-33.25,95.94,95.94,0,0,1,34-21.09q19.95-7.41,45-7.41,24.7,0,44.46,7.41a90.08,90.08,0,0,1,33.44,21.47,93.37,93.37,0,0,1,20.9,34.39q7.21,20.33,7.22,45.79v7.22Zm80.56-39.9a41.42,41.42,0,0,0-14.06-23.18q-10.64-8.74-25.84-8.74-16,0-26,8.36t-12.73,23.56Z" transform="translate(-262.62 -1564.63)"/></svg>