<svg xmlns="http://www.w3.org/2000/svg" viewBox="0 0 2047.21 394.02"><defs><style>.cls-1{fill:#50a6d3;}.cls-2{fill:none;stroke:#50a6d3;stroke-miterlimit:10;stroke-width:20px;}</style></defs><title>logo</title><g id="Layer_1" data-name="Layer 1"><path class="cls-1" d="M842.2,1749.65q-19-9.88-37.24-9.88-9.5,0-15.39,3.8t-5.89,10.26a13.41,13.41,0,0,0,.95,5.51,9.75,9.75,0,0,0,4.18,4,35.93,35.93,0,0,0,9.5,3.42q6.27,1.52,16.53,3.8,28.5,5.7,42.56,20.33t14.06,37.43a67.87,67.87,0,0,1-6.84,30.78,65.47,65.47,0,0,1-19,23,90.28,90.28,0,0,1-29.26,14.44,130.52,130.52,0,0,1-37.62,5.13q-39.53,0-77.9-22.42l25.08-48.64q28.87,19.76,54.72,19.76,9.49,0,15.58-4.18t6.08-10.64a17.77,17.77,0,0,0-.95-6.27,10.27,10.27,0,0,0-4-4.56,32,32,0,0,0-8.93-3.8q-5.9-1.71-15.39-3.61-31.92-6.46-44.65-19.19t-12.73-35.15a69.17,69.17,0,0,1,6.08-29.45,60.94,60.94,0,0,1,17.48-22.23,81.93,81.93,0,0,1,27.55-14.06,122.55,122.55,0,0,1,35.91-4.94,163,163,0,0,1,62.7,12.54Z" transform="translate(-216.91 -1515.18)"/><path class="cls-1" d="M1056.9,1699.49h69.16v194.94H1056.9v-21.66q-22,27.74-59.66,27.74a96.88,96.88,0,0,1-39.14-7.79,94.25,94.25,0,0,1-31.16-21.85,100.73,100.73,0,0,1-20.71-33.06,113,113,0,0,1-7.41-41.42,109.82,109.82,0,0,1,7.22-39.71,102,102,0,0,1,20.14-32.87A95,95,0,0,1,957,1701.58a93.9,93.9,0,0,1,39.52-8.17q36.48,0,60.42,25.46Zm-86.64,96.9A45.47,45.47,0,0,0,983,1828.31a41.71,41.71,0,0,0,14.06,9.5,45.28,45.28,0,0,0,17.67,3.42,44.33,44.33,0,0,0,17.29-3.42,41.82,41.82,0,0,0,14.06-9.5,49.18,49.18,0,0,0,9.5-14.06,41,41,0,0,0,3.61-17.1,42.35,42.35,0,0,0-3.61-17.29,48.53,48.53,0,0,0-9.5-14.25,41.92,41.92,0,0,0-14.06-9.5,44.35,44.35,0,0,0-17.29-3.42,45.3,45.3,0,0,0-17.67,3.42,41.8,41.8,0,0,0-14.06,9.5,46.83,46.83,0,0,0-9.31,13.87A41.61,41.61,0,0,0,970.26,1796.39Z" transform="translate(-216.91 -1515.18)"/><path class="cls-1" d="M1249.55,1756.87v137.56h-68.78V1756.87H1158v-57.38h22.8V1641h68.78v58.52h39.14v57.38Z" transform="translate(-216.91 -1515.18)"/><path class="cls-1" d="M1380.27,1808.55q0,44.46,41.8,44.46,22.42,0,33.82-18.24h66.5q-20.15,66.89-100.7,66.88-24.71,0-45.22-7.41a100.89,100.89,0,0,1-35.15-21.09,93.93,93.93,0,0,1-22.61-32.68q-8-19-8-42.56,0-24.31,7.6-43.89a92.29,92.29,0,0,1,21.66-33.25,95.94,95.94,0,0,1,34-21.09q19.95-7.41,45-7.41,24.7,0,44.46,7.41a90.08,90.08,0,0,1,33.44,21.47,93.37,93.37,0,0,1,20.9,34.39q7.21,20.33,7.22,45.79v7.22Zm80.56-39.9a41.42,41.42,0,0,0-14.06-23.18q-10.64-8.74-25.84-8.74-16,0-26,8.36t-12.73,23.56Z" transform="translate(-216.91 -1515.18)"/><path class="cls-1" d="M1633,1579v315.4h-68.78V1579Z" transform="translate(-216.91 -1515.18)"/><path class="cls-1" d="M1748.86,1579v315.4h-68.78V1579Z" transform="translate(-216.91 -1515.18)"/><path class="cls-1" d="M1791.42,1624.63a37.36,37.36,0,0,1,3-15,39.41,39.41,0,0,1,20.71-20.71,38.57,38.57,0,0,1,30,0,39.41,39.41,0,0,1,20.71,20.71,38.59,38.59,0,0,1,0,30,39.42,39.42,0,0,1-20.71,20.71,38.57,38.57,0,0,1-30,0,39.42,39.42,0,0,1-20.71-20.71A37.34,37.34,0,0,1,1791.42,1624.63Zm73.34,74.86v194.94H1796V1699.49Z" transform="translate(-216.91 -1515.18)"/><path class="cls-1" d="M1988.63,1756.87v137.56h-68.78V1756.87h-22.8v-57.38h22.8V1641h68.78v58.52h39.14v57.38Z" transform="translate(-216.91 -1515.18)"/><path class="cls-1" d="M2119.34,1808.55q0,44.46,41.8,44.46,22.42,0,33.82-18.24h66.5q-20.15,66.89-100.7,66.88-24.71,0-45.22-7.41a100.89,100.89,0,0,1-35.15-21.09,93.93,93.93,0,0,1-22.61-32.68q-8-19-8-42.56,0-24.31,7.6-43.89a92.29,92.29,0,0,1,21.66-33.25,95.94,95.94,0,0,1,34-21.09q19.95-7.41,45-7.41,24.7,0,44.46,7.41a90.08,90.08,0,0,1,33.44,21.47,93.37,93.37,0,0,1,20.9,34.39q7.21,20.33,7.22,45.79v7.22Zm80.56-39.9a41.42,41.42,0,0,0-14.06-23.18q-10.64-8.74-25.84-8.74-16,0-26,8.36t-12.73,23.56Z" transform="translate(-216.91 -1515.18)"/><circle class="cls-1" cx="279.69" cy="114.59" r="41.28"/></g><g id="Layer_2" data-name="Layer 2"><path class="cls-2" d="M600.94,1525.18h-374v272.7a496.25,496.25,0,0,1,54.51-3c122.11,0,225.58,43.77,261.24,104.3h58.28Z" transform="translate(-216.91 -1515.18)"/><path class="cls-1" d="M281.42,1794.9a496.25,496.25,0,0,0-54.51,3V1899.2H542.66C507,1838.67,403.53,1794.9,281.42,1794.9Z" transform="translate(-216.91 -1515.18)"/><line class="cls-2" x1="10" y1="282.7" x2="10" y2="384.02"/><line class="cls-2" x1="325.74" y1="384.02" x2="0.04" y2="384.02"/></g></svg>